<svg version="1" xmlns="http://www.w3.org/2000/svg" width="933.333" height="933.333" viewBox="0 0 700.000000 700.000000"><path d="M47 262.4c0 256.4 0 262.1 1.9 263.3 1 .7 9 5.3 17.7 10.4 15.5 8.9 19 10.9 25.7 14.8 1.7 1 9.3 5.3 16.7 9.6 7.4 4.3 17.3 10 22 12.7 4.7 2.6 9.2 5.3 10 5.8.8.5 3.8 2.2 6.5 3.8 2.8 1.6 6.8 3.9 9 5.1 3.4 2 35.9 20.8 46.2 26.7 22 12.8 40.3 23.3 43.2 24.9 2 1.1 5.3 3.1 7.4 4.4 2.1 1.3 4 2.1 4.3 1.8.6-.5.9-4.8 1.9-23.2.3-6.1.7-14.6 1-19 .3-4.4.7-12.3 1-17.5.9-18.3 1.6-29.6 2-36 .2-3.6.7-13.1 1-21.2l.7-14.6h-4.4c-6.7 0-6.8-.1-6.8-2.5-.1-3.1-4.3-13.1-7.6-17.9-4.4-6.3-8.9-9.2-15.2-9.8l-5.5-.5-.2-9c-.1-5 .2-9.7.6-10.6.6-1.2 2.6-1.5 10.8-1.4 8.7.1 10-.1 9.6-1.4-.2-.9-1-4.1-1.5-7.1-.6-3-1.3-6.5-1.6-7.6-.2-1.2-1.8-8.2-3.5-15.5-1.7-7.4-3.2-14.3-3.4-15.4-.3-2 .3-2 29.4-2h29.6l.1-56.8c0-31.2-.2-56.7-.5-56.8-5.1-.6-6.6-1.1-8.2-2.5-4.2-3.8-.9-10.7 5.1-10.7 2.3 0 3.1-.5 3.4-2.1 2.1-11.9 2.9-15.1 4.8-19.3 6.3-14.4 18-25.1 32.9-30.2 10.2-3.4 12.3-11.3 5.6-21-4.7-6.8-5.2-11.5-1.9-17.9 3.5-6.8 12.6-9.7 19.7-6.1 9.3 4.5 11.7 15.6 5.1 23.6-3.9 4.8-5 8.9-3.8 13.2 1.4 4.6 3.4 6.5 8.7 8.1 20.6 6.4 37.5 28.2 37.5 48.4 0 3 .2 3.3 3.1 3.1 2-.1 4.1.6 5.7 2 2.1 1.8 2.4 2.7 1.8 5.8-.7 3.7-2.4 4.9-7.6 5.2l-2.5.1v113.9l28 .1c15.4.1 28.8.2 29.8.3 2.1.1 2.3-1.6-4.1 26.8-3 13.1-4.4 21.4-3.8 21.4.6.1 4.7.3 9.1.4 4.4.1 8.7.3 9.5.4 1.3.1 1.5 1.9 1.5 10.3l-.1 10.3-5.5.5c-6 .5-11 3.5-14.9 8.9-2.9 4.2-6.7 12.9-7.5 17.3-.8 4-.7 4-7.9 4h-3.8l.7 14.7c.3 8 .8 16.8 1 19.6.2 2.7.6 10.6 1 17.5.6 12.8 1.1 22.5 2 36.5.3 4.4.7 13.2 1.1 19.5.9 20.3 1.2 23.1 1.7 23.6.3.3 4.8-1.9 9.9-4.9 5.1-3 10.9-6.3 12.8-7.4 1.9-1.1 7.9-4.5 13.3-7.6 5.3-3.2 14.1-8.2 19.5-11.4 5.3-3.1 11.3-6.5 13.2-7.6 1.9-1.1 13.6-7.8 26-15 30.1-17.4 58-33.5 66.3-38.3 3.8-2.1 8.2-4.7 9.7-5.6 1.6-.9 10.9-6.3 20.7-11.9 9.8-5.7 18.1-10.8 18.5-11.3.4-.6.8-79.2.8-174.7 0-137.4-.3-173.8-1.2-174.8-1.1-1.1-1-1.3 0-.7 1 .6 1.2-16.8 1-86.6L652.5.5 349.8.4 47 .3v262.1zm421.5-137.9c3.1 7.7 5.7 14.1 5.9 14.2.1.2 6.8-1.7 14.7-4.1 7.9-2.4 14.5-4.3 14.7-4.2.1.2-3.2 6.2-7.4 13.5-7.2 12.5-7.5 13.3-5.8 14.6 1.1.8 6.7 4.7 12.6 8.7 5.9 4 10.4 7.5 10 7.9-.4.4-3.4 1-6.7 1.3-3.3.3-7.1.8-8.5 1.1-1.4.3-4.1.8-6 1-5.7.8-6.4 1-7.8 1.8-.7.5-1 1.2-.8 1.6.2.3.7 5.1 1 10.6.4 5.5.9 11.7 1.2 13.7.3 2.1.1 3.8-.3 3.8-.8 0-3.5-2.4-16.2-14.2l-6.3-6-3.1 2.9c-1.7 1.5-4 3.7-5.2 4.8-1.2 1.1-4.7 4.4-7.8 7.2-3 2.9-6 5.3-6.7 5.3-.6 0-.9-.4-.6-.8.3-.5.8-5.3 1.1-10.8.3-5.4.8-11.8 1-14.2.3-2.3.1-4.2-.3-4.3-.4 0-1.6-.2-2.7-.4-5.7-1.1-14.6-2.5-19-3.1-9.2-1.2-9.2-1.3 4.4-10.4l12.7-8.5-1.8-3.5c-1-1.9-4.4-8-7.7-13.5-3.2-5.5-5.8-10.1-5.7-10.2.1-.1 6.6 1.8 14.5 4.2 7.9 2.4 14.7 4.3 15.1 4 .3-.2 3.1-6.7 6.1-14.3 3-7.7 5.5-13.9 5.6-13.9.1.1 2.7 6.5 5.8 14.2z"/><path d="M310.2 307.4l.3 7.9 19.8 11.4 19.7 11.4 19.8-11.4 19.7-11.4.3-7.9.3-7.9h-80.2l.3 7.9zM310 349.9v15l9.3-5.5c5-3 10.7-6.2 12.5-7.1 1.7-.9 3.2-2 3.2-2.3 0-.4-3.7-2.7-8.2-5.3-4.6-2.6-10.2-5.8-12.5-7.2l-4.3-2.6v15zM383 339.1c-3.6 2.2-9.1 5.4-12.2 7.1-3.2 1.7-5.8 3.4-5.8 3.8 0 .3 1.9 1.7 4.3 2.9 2.3 1.2 7.9 4.4 12.5 7.1l8.2 4.8v-14.9c0-8.2-.1-14.9-.2-14.9-.2.1-3.2 1.9-6.8 4.1zM330 373.4l-19.5 11.3v15.8h79v-15.8L370 373.4c-10.7-6.2-19.7-11.3-20-11.3-.3 0-9.3 5.1-20 11.3zM249 425.1c0 1 .7 4.8 1.6 8.6.9 3.7 1.8 7.9 2 9.3.3 1.4.9 4.1 1.5 6.1l.9 3.6 5.5-.1c4.3-.1 5.4-.4 5.1-1.6-.7-2.5-1.7-7.7-2.1-11-.3-1.8-.7-3.9-.9-4.9-.3-.9-.8-3.2-1.1-5.1-1.1-6.8-1.1-6.8-7-6.7-4.5.1-5.5.4-5.5 1.8zM271.6 423.9c-.2.3.4 4.6 1.4 9.6 1 4.9 2.1 10.6 2.4 12.6 1 6.4 1.1 6.5 8.6 6.5 8.2 0 7.6 1.8 5.2-16.6l-1.7-12.5-7.8-.1c-4.3 0-8 .2-8.1.5zM412.4 424.4c-.4 1.3-3.4 24.8-3.4 26.9 0 1.1 1.5 1.4 6.9 1.3 3.8 0 7.1-.3 7.3-.6.4-.4 3.3-15.2 4.4-22 .2-.8.5-2.6.8-4l.5-2.5-8.1-.1c-4.9 0-8.1.4-8.4 1zM439.6 424.9c-.3.9-1.4 6.5-2.6 12.6-1.1 6-2.2 11.9-2.4 13-.4 1.9.1 2.1 5 2.2 3 0 5.6-.2 5.8-.6.4-.5 6.6-27.5 6.6-28.5 0-.1-2.7-.3-6-.3-4.6 0-6.1.3-6.4 1.6z"/></svg>