<?xml version="1.0" encoding="UTF-8" standalone="no"?>
<!-- Created with Inkscape (http://www.inkscape.org/) -->

<svg
   xmlns:dc="http://purl.org/dc/elements/1.1/"
   xmlns:cc="http://creativecommons.org/ns#"
   xmlns:rdf="http://www.w3.org/1999/02/22-rdf-syntax-ns#"
   xmlns:svg="http://www.w3.org/2000/svg"
   xmlns="http://www.w3.org/2000/svg"
   xmlns:sodipodi="http://sodipodi.sourceforge.net/DTD/sodipodi-0.dtd"
   xmlns:inkscape="http://www.inkscape.org/namespaces/inkscape"
   width="25.961834mm"
   height="29.977926mm"
   viewBox="0 0 25.961834 29.977926"
   version="1.1"
   id="svg8"
   sodipodi:docname="logo.svg"
   inkscape:version="0.92.4 (5da689c313, 2019-01-14)">
  <defs
     id="defs2">
    <clipPath
       id="clipPath4534"
       clipPathUnits="userSpaceOnUse">
      <path
         inkscape:connector-curvature="0"
         id="path4532"
         d="M 0,133.788 H 357.056 V 0 H 0 Z" />
    </clipPath>
  </defs>
  <sodipodi:namedview
     id="base"
     pagecolor="#ffffff"
     bordercolor="#666666"
     borderopacity="1.0"
     inkscape:pageopacity="0.0"
     inkscape:pageshadow="2"
     inkscape:zoom="0.7"
     inkscape:cx="-48.015823"
     inkscape:cy="-50.15454"
     inkscape:document-units="mm"
     inkscape:current-layer="g4530"
     showgrid="false"
     inkscape:window-width="1920"
     inkscape:window-height="1017"
     inkscape:window-x="-8"
     inkscape:window-y="-8"
     inkscape:window-maximized="1" />
  <metadata
     id="metadata5">
    <rdf:RDF>
      <cc:Work
         rdf:about="">
        <dc:format>image/svg+xml</dc:format>
        <dc:type
           rdf:resource="http://purl.org/dc/dcmitype/StillImage" />
      </cc:Work>
    </rdf:RDF>
  </metadata>
  <g
     inkscape:label="Layer 1"
     inkscape:groupmode="layer"
     id="layer1"
     transform="translate(-51.297668,-121.74913)">
    <g
       transform="matrix(0.35277777,0,0,-0.35277777,38.317034,158.56205)"
       inkscape:label="MQ_MAS_HOR_RGB_POS"
       id="g4526">
      <g
         id="g4528">
        <g
           clip-path="url(#clipPath4534)"
           id="g4530">
          <g
             transform="translate(201.708,72.7744)"
             id="g4544" />
          <g
             id="g4874">
            <g
               id="g4614"
               transform="translate(80.1914,58.0537)">
              <path
                 d="M 0,0 6.791,-3.922 H 7.278 L 7.229,-4.17 30.196,-17.432 V 25.055 L 0,7.622 Z"
                 style="fill:#d6001c;fill-opacity:1;fill-rule:nonzero;stroke:none"
                 id="path4616"
                 inkscape:connector-curvature="0" />
            </g>
            <g
               id="g4618"
               transform="translate(60.1992,54.1318)">
              <path
                 d="m 0,0 6.793,3.922 v 7.622 L -23.403,28.977 V -13.51 L -0.392,-0.224 -0.442,0 Z"
                 style="fill:#76232f;fill-opacity:1;fill-rule:nonzero;stroke:none"
                 id="path4620"
                 inkscape:connector-curvature="0" />
            </g>
            <g
               id="g4622"
               transform="translate(73.5938,104.3516)">
              <path
                 d="M 0,0 36.794,-21.243 V 0 Z"
                 style="fill:#d6001c;fill-opacity:1;fill-rule:nonzero;stroke:none"
                 id="path4624"
                 inkscape:connector-curvature="0" />
            </g>
            <g
               id="g4626"
               transform="translate(36.7959,104.3516)">
              <path
                 d="M 0,0 V -21.243 L 36.798,0 Z"
                 style="fill:#76232f;fill-opacity:1;fill-rule:nonzero;stroke:none"
                 id="path4628"
                 inkscape:connector-curvature="0" />
            </g>
            <g
               id="g4630"
               transform="translate(88.7061,48.1904)">
              <path
                 d="M 0,0 V -2.621 H -1.236 C -2.418,-3.307 -3.188,-4.473 -3.519,-6.286 H -4.83 L -4.672,-9.183 -3.955,-22.372 21.682,-7.568 -1.286,5.693 -2.568,0 Z"
                 style="fill:#76232f;fill-opacity:1;fill-rule:nonzero;stroke:none"
                 id="path4632"
                 inkscape:connector-curvature="0" />
            </g>
            <g
               id="g4634"
               transform="translate(86.9824,54.1318)">
              <path
                 d="M 0,0 -6.791,3.922 V 0 Z"
                 style="fill:#76232f;fill-opacity:1;fill-rule:nonzero;stroke:none"
                 id="path4636"
                 inkscape:connector-curvature="0" />
            </g>
            <g
               id="g4638"
               transform="translate(61.0674,48.1904)">
              <path
                 d="M 0,0 -1.26,5.718 -24.271,-7.568 1.366,-22.372 2.24,-6.286 H 0.932 c -0.33,1.813 -1.097,2.979 -2.284,3.665 H -2.583 V 0 Z"
                 style="fill:#d6001c;fill-opacity:1;fill-rule:nonzero;stroke:none"
                 id="path4640"
                 inkscape:connector-curvature="0" />
            </g>
            <g
               id="g4642"
               transform="translate(66.9922,58.0537)">
              <path
                 d="M 0,0 -6.793,-3.922 H 0 Z"
                 style="fill:#d6001c;fill-opacity:1;fill-rule:nonzero;stroke:none"
                 id="path4644"
                 inkscape:connector-curvature="0" />
            </g>
            <g
               id="g4646"
               transform="translate(74.4268,78.2061)">
              <path
                 d="m 0,0 c 0.166,0 0.326,0.022 0.48,0.061 0.349,0.345 0.575,0.826 0.575,1.358 0,1.04 -0.85,1.887 -1.888,1.887 -0.165,0 -0.325,-0.021 -0.48,-0.061 C -1.668,2.901 -1.888,2.419 -1.888,1.89 -1.888,0.849 -1.043,0 0,0"
                 style="fill:#ffffff;fill-opacity:1;fill-rule:nonzero;stroke:none"
                 id="path4648"
                 inkscape:connector-curvature="0" />
            </g>
            <g
               id="g4650"
               transform="translate(76.5781,41.3418)">
              <path
                 d="m 0,0 c -5.315,-0.065 -6.818,-3.306 -6.818,-3.306 l -0.316,-0.665 -0.533,-15.294 4.683,-2.702 11.157,6.444 -0.717,13.189 C 7.367,-2.164 6.049,0.078 0,0"
                 style="fill:#ffffff;fill-opacity:1;fill-rule:nonzero;stroke:none"
                 id="path4652"
                 inkscape:connector-curvature="0" />
            </g>
            <g
               id="g4654"
               transform="translate(58.4844,48.1904)">
              <path
                 d="m 0,0 v -2.621 h 1.231 c 1.187,-0.686 1.954,-1.852 2.284,-3.665 h 1.308 l -0.874,-16.086 6.478,-3.741 0.533,15.294 0.315,0.665 c 0,0 1.503,3.24 6.819,3.305 6.049,0.078 7.367,-2.164 7.456,-2.334 l -0.158,2.897 h 1.311 c 0.33,1.813 1.101,2.979 2.282,3.665 h 1.237 V 0 Z"
                 style="fill:#b3b3b3;fill-opacity:1;fill-rule:nonzero;stroke:none"
                 id="path4656"
                 inkscape:connector-curvature="0" />
            </g>
            <g
               id="g4658"
               transform="translate(74.8623,30.5439)">
              <path
                 d="M 0,0 C 0,0.478 -0.574,1.271 -1.272,1.271 -1.974,1.271 -2.53,0.478 -2.541,0 V -3.296 H 0 Z"
                 style="fill:#b3b3b3;fill-opacity:1;fill-rule:nonzero;stroke:none"
                 id="path4660"
                 inkscape:connector-curvature="0" />
            </g>
            <g
               id="g4662"
               transform="translate(68.7275,67.9912)">
              <path
                 d="m 0,0 v -1.871 l 4.864,-2.808 4.871,2.81 V 0 Z"
                 style="fill:#76232f;fill-opacity:1;fill-rule:nonzero;stroke:none"
                 id="path4664"
                 inkscape:connector-curvature="0" />
            </g>
            <g
               id="g4666"
               transform="translate(73.5918,60.4072)">
              <path
                 d="m 0,0 -4.864,-2.808 v -1.871 h 9.735 v 1.867 z"
                 style="fill:#76232f;fill-opacity:1;fill-rule:nonzero;stroke:none"
                 id="path4668"
                 inkscape:connector-curvature="0" />
            </g>
            <g
               id="g4670"
               transform="translate(80.1914,69.5723)">
              <path
                 d="m 0,0 h 0.518 c 0.433,0 0.786,-0.353 0.786,-0.79 0,-0.436 -0.353,-0.791 -0.786,-0.791 H 0 V -3.896 L 30.196,13.536 -6.598,34.779 v -22.84 c 1.038,0 1.888,-0.846 1.888,-1.886 0,-0.508 -0.209,-0.972 -0.533,-1.314 h 0.001 C -5.249,8.733 -5.254,8.726 -5.261,8.72 -5.27,8.711 -5.276,8.702 -5.284,8.694 -5.278,8.7 -5.273,8.707 -5.268,8.714 -5.548,8.442 -5.73,8.072 -5.73,7.646 -5.73,7.144 -5.484,6.693 -5.103,6.418 -2.184,5.74 -0.004,3.124 0,0"
                 style="fill:#76232f;fill-opacity:1;fill-rule:nonzero;stroke:none"
                 id="path4672"
                 inkscape:connector-curvature="0" />
            </g>
            <g
               id="g4674"
               transform="translate(73.5918,55.7285)">
              <path
                 d="M 0,0 H -4.864 V 1.871 L 0.002,4.679 H 0.005 L 0.002,4.681 v 2.903 l -4.866,2.808 v 1.871 h 2.144 c -0.143,0.055 -0.253,0.395 -0.253,0.791 0,0.437 0.134,0.79 0.297,0.79 h 0.193 c 0.004,3.637 1.114,6.591 2.485,6.591 0.514,0 1.013,-0.061 1.493,-0.173 -0.381,0.275 -0.626,0.723 -0.626,1.228 0,0.415 0.175,0.779 0.444,1.047 C 1.159,22.5 0.999,22.478 0.835,22.478 c -1.043,0 -1.888,0.848 -1.888,1.889 0,0.529 0.22,1.012 0.575,1.356 -0.811,-0.212 -1.412,-0.952 -1.412,-1.827 0,-0.511 0.205,-0.971 0.536,-1.313 0.292,-0.272 0.487,-0.654 0.487,-1.093 0,-0.505 -0.247,-0.955 -0.622,-1.237 -2.926,-0.672 -5.104,-3.285 -5.111,-6.411 h -0.513 c -0.441,0 -0.788,-0.354 -0.788,-0.791 0,-0.435 0.347,-0.793 0.788,-0.788 H -6.6 V -1.595 H 0 Z"
                 style="fill:#b3b3b3;fill-opacity:1;fill-rule:nonzero;stroke:none"
                 id="path4676"
                 inkscape:connector-curvature="0" />
            </g>
            <g
               id="g4678"
               transform="translate(73.5938,63.3145)">
              <path
                 d="m 0,0 v -2.905 l 4.869,-2.812 v -1.867 h -4.871 v -1.597 h -13.835 l 1.311,-5.94 h 25.07 l 1.332,5.94 H 6.598 V 4.677 h 0.517 c 0.434,0 0.786,0.355 0.786,0.791 0,0.437 -0.352,0.79 -0.786,0.79 H 6.598 C 6.593,9.896 3.638,12.849 0,12.849 c -1.371,0 -2.481,-2.953 -2.485,-6.591 h -0.193 c -0.163,0 -0.297,-0.353 -0.297,-0.79 0,-0.396 0.11,-0.736 0.253,-0.791 H 4.869 V 2.81 Z"
                 style="fill:#ffffff;fill-opacity:1;fill-rule:nonzero;stroke:none"
                 id="path4680"
                 inkscape:connector-curvature="0" />
            </g>
            <g
               id="g4682"
               transform="translate(68.7275,63.6748)">
              <path
                 d="m 0,0 3.127,-1.808 -3.134,-1.81 z"
                 style="fill:#76232f;fill-opacity:1;fill-rule:nonzero;stroke:none"
                 id="path4684"
                 inkscape:connector-curvature="0" />
            </g>
            <g
               id="g4686"
               transform="translate(78.4629,63.6787)">
              <path
                 d="M 0,0 -3.127,-1.819 0,-3.624 Z"
                 style="fill:#d6001c;fill-opacity:1;fill-rule:nonzero;stroke:none"
                 id="path4688"
                 inkscape:connector-curvature="0" />
            </g>
            <g
               id="g4690"
               transform="translate(87.2842,81.3125)">
              <path
                 d="m 0,0 -2.813,-2.602 0.276,3.82 -3.788,0.578 3.167,2.166 L -5.072,7.28 -1.407,6.162 0,9.722 1.4,6.162 5.067,7.28 3.159,3.962 6.319,1.796 2.53,1.218 2.818,-2.602 Z"
                 style="fill:#ffffff;fill-opacity:1;fill-rule:nonzero;stroke:none"
                 id="path4692"
                 inkscape:connector-curvature="0" />
            </g>
            <g
               id="g4694"
               transform="translate(66.4785,67.9912)">
              <path
                 d="m 0,0 c -0.44,-0.005 -0.788,0.354 -0.788,0.788 0,0.438 0.348,0.791 0.788,0.791 h 0.514 c 0.007,3.126 2.184,5.739 5.11,6.411 0.375,0.282 0.622,0.733 0.622,1.238 0,0.438 -0.194,0.82 -0.486,1.092 -0.331,0.342 -0.536,0.802 -0.536,1.314 0,0.875 0.6,1.614 1.412,1.826 0.154,0.04 0.314,0.061 0.479,0.061 V 36.36 L -29.683,15.117 0.514,-2.315 V 0 Z"
                 style="fill:#d6001c;fill-opacity:1;fill-rule:nonzero;stroke:none"
                 id="path4696"
                 inkscape:connector-curvature="0" />
            </g>
            <g
               id="g4698"
               transform="translate(67.7588,49.3848)">
              <path
                 d="M 0,0 H 1.908 L 1.656,3.558 H -0.45 Z"
                 style="fill:#b3b3b3;fill-opacity:1;fill-rule:nonzero;stroke:none"
                 id="path4700"
                 inkscape:connector-curvature="0" />
            </g>
            <g
               id="g4702"
               transform="translate(70.9619,49.3848)">
              <path
                 d="M 0,0 H 2.525 V 3.558 H -0.25 Z"
                 style="fill:#b3b3b3;fill-opacity:1;fill-rule:nonzero;stroke:none"
                 id="path4704"
                 inkscape:connector-curvature="0" />
            </g>
            <g
               id="g4706"
               transform="translate(64.6846,49.3848)">
              <path
                 d="M 0,0 H 1.771 L 1.318,3.558 h -1.995 z"
                 style="fill:#d6001c;fill-opacity:1;fill-rule:nonzero;stroke:none"
                 id="path4708"
                 inkscape:connector-curvature="0" />
            </g>
            <g
               id="g4710"
               transform="translate(62.0244,49.3848)">
              <path
                 d="M 0,0 H 1.343 L 0.67,3.558 h -1.451 z"
                 style="fill:#d6001c;fill-opacity:1;fill-rule:nonzero;stroke:none"
                 id="path4712"
                 inkscape:connector-curvature="0" />
            </g>
            <g
               id="g4714"
               transform="translate(80.7295,49.3848)">
              <path
                 d="M 0,0 H 1.773 L 2.445,3.558 H 0.448 Z"
                 style="fill:#76232f;fill-opacity:1;fill-rule:nonzero;stroke:none"
                 id="path4716"
                 inkscape:connector-curvature="0" />
            </g>
            <g
               id="g4718"
               transform="translate(83.8174,49.3848)">
              <path
                 d="M 0,0 H 1.393 L 2.177,3.558 H 0.672 Z"
                 style="fill:#76232f;fill-opacity:1;fill-rule:nonzero;stroke:none"
                 id="path4720"
                 inkscape:connector-curvature="0" />
            </g>
          </g>
        </g>
      </g>
    </g>
  </g>
</svg>
